<svg id="Camada_1" data-name="Camada 1" xmlns="http://www.w3.org/2000/svg" viewBox="0 0 720 720"><defs><style>.cls-1{opacity:0.61;}.cls-2{fill:#e30613;}.cls-3{fill:#41bcee;}.cls-4{fill:#064156;}.cls-5{fill:#912283;}.cls-6{fill:#1d1d1b;}</style></defs><g class="cls-1"><path class="cls-2" d="M627,230.73l-.31-.61-.68-1.34.86-.5a11.43,11.43,0,0,1,1,2Z"/></g><path d="M627.48,230.51c-.34-.66-.66-1.31-1-2l-.05-.1a286.95,286.95,0,0,0-518.51,18.6,284.31,284.31,0,0,0-17.54,56.48,289.55,289.55,0,0,0,0,112.94,282.93,282.93,0,0,0,12.81,44.72c1.49,4,3.07,7.89,4.73,11.76a287.58,287.58,0,0,0,25.13,46.26q3.45,5.19,7.15,10.21a286.68,286.68,0,0,0,408,56.47h-2.28a255.59,255.59,0,0,1-139,40.84c-1.61,0-3.2,0-4.8-.05-1.18,0-2.36,0-3.55-.09h-.46c-.51,0-1,0-1.5-.06-.73,0-1.43,0-2.14-.09l-.55,0-.29,0c-.76,0-1.53-.07-2.29-.13h-.07l-.63,0-1.08-.07-.2,0-1-.07-1-.08-.29,0-.34,0c-.48,0-1-.06-1.44-.11l-.73-.06-.34,0c-.44-.05-.88-.08-1.32-.12l-.46,0c-.95-.08-1.88-.18-2.81-.28a1.46,1.46,0,0,1-.22,0c-.68-.06-1.35-.14-2-.22l-1.44-.18c-.73-.07-1.46-.17-2.18-.26l-2.17-.3-2.32-.32-3.59-.55-.29,0-2.12-.36-2.67-.47c-.88-.15-1.77-.31-2.64-.5-1.53-.29-3-.6-4.55-.92l-2.53-.55c-1.15-.25-2.28-.51-3.43-.78-.24-.07-.51-.13-.77-.19s-.5-.13-.76-.19c-1.22-.28-2.42-.6-3.64-.91l-.19,0c-1.48-.38-2.95-.78-4.42-1.19s-2.85-.81-4.27-1.23l-.25-.08c-1.42-.42-2.83-.86-4.23-1.31-1.21-.38-2.42-.77-3.61-1.18L323,612.7l-1.05-.37h0a4,4,0,0,1-.44-.17c-.88-.3-1.77-.62-2.65-.94l-1.13-.43c-.86-.29-1.71-.62-2.57-.95-1.65-.63-3.3-1.29-4.93-2s-3.11-1.28-4.66-1.95l-.09-.05c-.59-.24-1.17-.49-1.76-.75l-.57-.26-.3-.14c-1.17-.51-2.33-1-3.49-1.57-1.35-.62-2.7-1.25-4-1.9l0,0q-2-1-4-2l-3.91-2-.09,0c-1.14-.61-2.28-1.22-3.41-1.84l-.66-.36-3.45-1.93-1-.6c-.76-.44-1.51-.87-2.26-1.32-.94-.55-1.88-1.11-2.81-1.7s-1.68-1-2.51-1.54c-1.08-.66-2.13-1.33-3.19-2a257.91,257.91,0,0,1-62.3-56.47c-2.65-3.34-5.22-6.73-7.7-10.21-1.09-1.54-2.19-3.09-3.26-4.65-.79-1.18-1.59-2.36-2.38-3.55-.51-.76-1-1.53-1.5-2.31-.23-.35-.45-.69-.67-1.05l-.75-1.19c-.25-.38-.5-.78-.75-1.18l-.67-1.08c-.34-.54-.66-1.07-1-1.62s-.84-1.38-1.25-2.08l0-.08c-.23-.41-.47-.8-.72-1.22l-.71-1.22c0-.07-.09-.16-.14-.23l-.31-.54c-.07-.12-.13-.25-.21-.37-.62-1.1-1.24-2.2-1.85-3.33s-1.36-2.46-2-3.72l-.75-1.4c-.24-.48-.49-.95-.73-1.42-.41-.83-.83-1.65-1.24-2.47-.17-.32-.34-.66-.5-1l-.49-1c-.35-.71-.7-1.42-1-2.13s-.75-1.57-1.11-2.36-.62-1.33-.92-2c-.46-1-.92-2-1.37-3.06q-1.45-3.29-2.81-6.65s0,0,0-.05,0,0,0,0c-.89-1.65-1.73-3.34-2.57-5a229.22,229.22,0,0,1,87-297.13s0,0,0,0l.06,0a229.09,229.09,0,0,1,317.5,83.06h45.49a12.1,12.1,0,0,0,11.56-8.5,12,12,0,0,0-.3-8Z"/><path class="cls-3" d="M371.57,647.25a290.49,290.49,0,0,1-50.28-4.39,287.5,287.5,0,0,1-181.5-113.14c-2.6-3.56-4.94-6.91-7.16-10.23a287.71,287.71,0,0,1-25.16-46.35c-1.69-3.91-3.28-7.87-4.74-11.77a283.84,283.84,0,0,1-12.84-44.8,290.05,290.05,0,0,1,0-113.14,286.29,286.29,0,0,1,49.9-113.15,287.48,287.48,0,0,1,487.09,37.94l0,.1.68,1.35.33.65a12.45,12.45,0,0,1,.31,8.38,12.54,12.54,0,0,1-12,8.85H570.44l-.14-.25a228.56,228.56,0,0,0-316.81-82.89l-.07.05A230.56,230.56,0,0,0,218,191,228.4,228.4,0,0,0,166.6,461c.75,1.5,1.63,3.27,2.55,5l.07.16c1,2.36,1.88,4.52,2.81,6.63.45,1,.91,2,1.36,3.05.3.67.61,1.34.92,2s.74,1.57,1.11,2.35.66,1.37,1,2.05l.53,1.09.32.64,1.42,2.81c.23.47.48.94.73,1.41l.69,1.31.05.1c.71,1.38,1.45,2.71,2,3.71s1.23,2.23,1.86,3.32l.52.91.07.13.77,1.33c.25.4.49.8.73,1.21l.05.11,1.22,2c.33.55.65,1.08,1,1.61L189,505c.24.39.49.79.74,1.17s.5.8.75,1.18.45.72.67,1.06c.49.77,1,1.54,1.5,2.3.79,1.2,1.58,2.38,2.38,3.54,1.06,1.57,2.16,3.11,3.25,4.65,2.44,3.42,5,6.85,7.68,10.19a256.56,256.56,0,0,0,62.18,56.36c1.05.69,2.11,1.36,3.18,2l.09.06c.8.5,1.6,1,2.41,1.47s1.87,1.15,2.81,1.69c.76.46,1.5.89,2.26,1.32q.52.33,1,.6l3.45,1.93.2.11.44.24c1.15.63,2.28,1.24,3.43,1.85l.07,0,3.56,1.84.36.18c1.32.67,2.66,1.33,4,2l.09.06c1.32.63,2.65,1.26,4,1.87,1.16.53,2.31,1.06,3.48,1.57l.27.12.61.28c.57.25,1.15.5,1.73.73l.1.05c1.53.67,3,1.31,4.66,2s3.27,1.32,4.92,1.94c.86.33,1.7.66,2.55,1,.39.16.76.29,1.14.43.94.34,1.79.65,2.64.94l.36.14.1,0,1,.38,2.27.77c1.2.41,2.4.79,3.61,1.18,1.4.44,2.81.88,4.22,1.3l.25.08c1.42.42,2.83.83,4.26,1.23s2.94.8,4.41,1.19l.12,0,.55.14c1.05.27,2.1.54,3.16.79l.3.07.44.11.8.19c1.13.27,2.26.53,3.4.78l.39.09,2.14.46c1.51.32,3,.63,4.54.92.88.19,1.76.35,2.64.49l.39.07,2.27.41,2.13.36.15,0h.11c1.21.19,2.41.38,3.6.55.77.12,1.55.23,2.32.33l2.16.3.7.08,1.47.18,1.45.17c.67.09,1.34.16,2,.22l.17,0c1,.1,1.91.2,2.86.28l.63.06c.38,0,.77.06,1.16.11l.3,0,.76.06c.47,0,.94.09,1.42.11l.36,0,.24,0,2.09.15h.11l1.78.12c.54,0,1,.06,1.45.08l.92.06h.15l.69,0c.7,0,1.41.06,2.12.09.51,0,1,.05,1.51.06h.44c1.2,0,2.38.08,3.56.09,1.59,0,3.18.05,4.79.05a255.4,255.4,0,0,0,138.74-40.76l.13-.08h3.87l-1.14.9a287.21,287.21,0,0,1-126.69,56.57A290.38,290.38,0,0,1,371.57,647.25Zm0-573.5a286.64,286.64,0,0,0-263.19,173.5,284.48,284.48,0,0,0-17.51,56.37,289.14,289.14,0,0,0,0,112.76A283.18,283.18,0,0,0,103.66,461c1.46,3.88,3,7.83,4.72,11.73a287.23,287.23,0,0,0,25.08,46.18c2.21,3.32,4.54,6.65,7.14,10.2A286.47,286.47,0,0,0,321.47,641.88a290.68,290.68,0,0,0,100.2,0,286.31,286.31,0,0,0,125.1-55.49h-.68a256.43,256.43,0,0,1-139.16,40.84c-1.61,0-3.21,0-4.81-.05-1.18,0-2.37,0-3.55-.09h-.45c-.52,0-1,0-1.53-.06-.71,0-1.43,0-2.14-.09l-.56,0h-.25l-.94,0c-.46,0-.93-.05-1.39-.09l-4-.27a1.57,1.57,0,0,1-.29,0h-.15l-.2,0c-.47,0-1-.06-1.44-.11l-.74-.06-.28,0-1.19-.11-.63,0-2.83-.29-.26,0c-.63,0-1.31-.13-2-.22l-1.45-.17-1.48-.18-.69-.08c-.73-.09-1.45-.19-2.18-.3l-2.33-.33c-1.19-.17-2.39-.36-3.59-.55l-.16,0-2.26-.39c-.76-.12-1.51-.26-2.28-.4l-.39-.07c-.88-.15-1.77-.31-2.65-.5-1.53-.29-3-.6-4.56-.92l-2.14-.47-.39-.08c-1.15-.25-2.28-.51-3.43-.79l-.74-.18c-.18,0-.34-.08-.51-.12l-.28-.07c-1.06-.25-2.12-.52-3.18-.79L342,619c-1.56-.41-3-.81-4.51-1.22s-2.85-.81-4.27-1.23l-.25-.08c-1.43-.42-2.84-.86-4.25-1.31-1.21-.39-2.42-.77-3.62-1.19-.75-.24-1.51-.51-2.28-.77l-1.06-.37-.47-.17c-.83-.28-1.69-.6-2.55-.91l-1.23-.46c-.84-.3-1.7-.62-2.56-1-1.65-.62-3.3-1.28-4.94-1.94s-3.14-1.3-4.66-2a.33.33,0,0,1-.13-.07c-.58-.23-1.16-.47-1.73-.73l-.58-.27a2.56,2.56,0,0,1-.31-.14q-1.74-.75-3.48-1.56c-1.32-.61-2.64-1.23-3.95-1.86h-.1l-.11-.11c-1.32-.64-2.65-1.29-4-1.95l-.36-.18-3.55-1.84-.13-.07c-1.14-.6-2.26-1.21-3.38-1.83l-.47-.25-.19-.11c-1.16-.63-2.31-1.28-3.46-1.93-.33-.19-.69-.39-1-.61-.75-.43-1.5-.86-2.25-1.31-.95-.55-1.89-1.11-2.83-1.7s-1.61-1-2.42-1.49l-.09-.06c-1.07-.66-2.13-1.33-3.19-2a257.56,257.56,0,0,1-62.42-56.58c-2.67-3.35-5.26-6.8-7.71-10.23-1.1-1.54-2.2-3.09-3.27-4.66-.8-1.18-1.6-2.36-2.38-3.56-.51-.76-1-1.53-1.51-2.3l-.68-1.07c-.25-.38-.5-.78-.75-1.18l-.74-1.19-.68-1.08c-.33-.54-.66-1.08-1-1.63s-.84-1.38-1.25-2.08l-.06-.11c-.21-.37-.45-.77-.7-1.18l-.71-1.23a.6.6,0,0,1-.08-.13l-.58-1c-.63-1.11-1.25-2.22-1.86-3.35s-1.3-2.34-2-3.73l-.05-.1c-.23-.43-.46-.87-.7-1.3s-.5-.95-.74-1.43l-1.42-2.81c-.11-.22-.22-.44-.32-.66l-.49-1c-.37-.76-.71-1.44-1-2.13s-.75-1.57-1.11-2.36-.63-1.33-.93-2c-.46-1-.92-2-1.37-3.06-.92-2.09-1.83-4.24-2.78-6.57l-.1-.12v-.1c-.91-1.71-1.79-3.46-2.52-4.94a229.36,229.36,0,0,1,51.56-271.21,230.92,230.92,0,0,1,35.56-26.56l0,0a.56.56,0,0,1,.14-.09,229.61,229.61,0,0,1,318,83h45.2a11.54,11.54,0,0,0,11.08-8.15,11.5,11.5,0,0,0-.28-7.69l-.3-.59-.68-1.34a.44.44,0,0,1-.08-.17A286.79,286.79,0,0,0,371.57,73.75Z"/><g class="cls-1"><path class="cls-4" d="M441.47,226.81s0,0,0,0,0,.08,0,.12Z"/><path class="cls-3" d="M441.83,227.2l-.14-.14-.34-.1-.21.22.19-.22-.38-.11.24-1,.78.72,0,.44-.08.1h0Zm-.36-.39.49.12Z"/></g><path d="M632.54,468.36a12.09,12.09,0,0,0-11-7.17H421.77l0,0A55,55,0,0,1,454.29,473c7.78,6.1,18.24,23.1,18.24,23.1a55.12,55.12,0,0,0,45,23.16h1.1q-2.83,5.22-6,10.21a185.57,185.57,0,0,1-42,46.7q-6.6,5.19-13.65,9.77a181.5,181.5,0,0,1-23.49,12.94,184,184,0,0,0,148.28-43.7,186.59,186.59,0,0,0,24.23-25.71c2-2.58,3.93-5.2,5.78-7.89a2,2,0,0,0,.13-.18c.5-.71,1-1.42,1.47-2.14a183.91,183.91,0,0,0,9.86-16.45A137.47,137.47,0,0,0,632.53,479a33.21,33.21,0,0,0,.79-4.08A12,12,0,0,0,632.54,468.36Z"/><path class="cls-5" d="M460.25,601.28a186.47,186.47,0,0,1-26.92-1.95l-1.67-.25,1.54-.7a182.22,182.22,0,0,0,23.43-12.9c4.62-3,9.2-6.28,13.61-9.75a184.93,184.93,0,0,0,41.93-46.58c1.88-3,3.75-6.14,5.56-9.44h-.25a55.85,55.85,0,0,1-45.36-23.36c-.12-.2-10.52-17-18.14-23a54.25,54.25,0,0,0-32.25-11.63v-.51l-.33-.35.15-.15H621.49A12.61,12.61,0,0,1,633,468.15h0a12.52,12.52,0,0,1,.82,6.84,36.31,36.31,0,0,1-.81,4.15A138,138,0,0,1,623.6,503a184.56,184.56,0,0,1-9.89,16.5c-.48.73-1,1.44-1.47,2.15l-.14.2c-1.73,2.5-3.63,5.09-5.79,7.89A187.31,187.31,0,0,1,582,555.51a184.3,184.3,0,0,1-121.77,45.77Zm-25.1-2.71a183.88,183.88,0,0,0,170.37-69.46c2.15-2.78,4-5.35,5.77-7.87l.11-.14c.52-.74,1-1.45,1.48-2.17a183.83,183.83,0,0,0,9.84-16.4,137.18,137.18,0,0,0,9.33-23.67,32.76,32.76,0,0,0,.78-4,11.39,11.39,0,0,0-.75-6.29h0a11.61,11.61,0,0,0-10.59-6.87H430.84a55.22,55.22,0,0,1,23.75,10.86c7.77,6.09,17.93,22.55,18.36,23.24a54.85,54.85,0,0,0,44.53,22.92c.36,0,.72,0,1.08,0l.52,0v.65l-.06.12c-1.95,3.58-4,7-6,10.24a186.08,186.08,0,0,1-42.16,46.82c-4.43,3.49-9,6.79-13.68,9.8A179.49,179.49,0,0,1,435.15,598.57Z"/><path d="M414.4,473H371.57c-.86,0-1.73,0-2.59,0h-.67l-2.66-.11a.2.2,0,0,1-.1,0c-.52,0-1,0-1.54-.08l-2.05-.15-1.26-.12-.45,0-.61-.08c-1.27-.13-2.53-.28-3.78-.46l-.39-.05c-.78-.1-1.56-.22-2.33-.36a4.71,4.71,0,0,1-.52-.09c-.71-.11-1.42-.23-2.12-.38-.37-.06-.75-.13-1.11-.21l-1.32-.27-.1,0c-.52-.1-1.05-.22-1.58-.35l-.12,0c-.09,0-.18,0-.25-.07l-1.32-.31c-.27-.06-.54-.12-.8-.2l-.32-.08-.83-.22a8,8,0,0,1-.84-.22c-.24-.06-.47-.12-.71-.2-.68-.19-1.37-.37-2.05-.58-.89-.27-1.76-.54-2.64-.83-.41-.13-.82-.26-1.22-.42l-.46-.15c-.6-.2-1.19-.41-1.76-.62-.35-.13-.7-.25-1-.39s-.57-.2-.85-.32-.41-.15-.61-.24l-.22-.08-.2-.08h0A.59.59,0,0,1,330,465h0l-.19-.08c-.73-.28-1.47-.58-2.19-.89l-.24-.1a3.47,3.47,0,0,1-.36-.15l-2.24-1a.45.45,0,0,1-.12-.06c-.3-.12-.61-.27-.91-.42-.8-.36-1.58-.75-2.37-1.14l-1.85-.94c-.63-.33-1.24-.65-1.85-1s-1.22-.66-1.81-1-1.21-.69-1.81-1.05q-3.1-1.83-6.09-3.87l-1.5-1-.51-.36-.88-.63-1.35-1,0,0c-.91-.69-1.82-1.39-2.7-2.1-.6-.47-1.18-.95-1.77-1.44s-1.16-1-1.73-1.48-1.14-1-1.7-1.51l0,0-1.05-1c-.18-.18-.36-.34-.53-.5l-.52-.5-.4-.37c-.68-.65-1.34-1.3-2-2l-.08-.07c-.45-.46-.91-.94-1.35-1.41s-1-1-1.44-1.52-.92-1-1.37-1.52-.9-1-1.35-1.55-.9-1.05-1.34-1.59l-1.29-1.6c-.44-.54-.86-1.08-1.27-1.63s-.83-1.1-1.24-1.66-.81-1.12-1.21-1.68a1.09,1.09,0,0,1-.13-.17c-.74-1-1.47-2.12-2.19-3.2l-1-1.63v0c-.76-1.23-1.52-2.45-2.24-3.71a113,113,0,0,1,0-112.94c.56-1,1.13-1.92,1.71-2.87.15-.26.31-.51.48-.76.46-.73.92-1.45,1.4-2.18l.07-.09c.66-1,1.32-1.95,2-2.89.23-.34.47-.68.72-1q.6-.84,1.23-1.68s.06-.09.1-.13l.74-1c.28-.37.58-.74.88-1.12s.44-.56.67-.84l.75-.91.12-.16,0,0c.33-.41.68-.82,1-1.22a1.18,1.18,0,0,1,.18-.21c.63-.75,1.28-1.47,1.94-2.19.16-.19.32-.37.5-.55.49-.56,1-1.11,1.54-1.64.3-.34.62-.67,1-1l.05-.05c.32-.35.67-.7,1-1s.71-.71,1.08-1.06c.82-.81,1.67-1.61,2.53-2.38l1.07-1,.32-.29.43-.37.18-.16.17-.14c.31-.29.62-.55.93-.8l0,0,.78-.67s0,0,0,0l.17-.14,0,0a.21.21,0,0,0,.08-.06,2.12,2.12,0,0,0,.24-.2l.24-.18.15-.13.19-.15c.12-.11.25-.21.37-.3s0,0,.06,0l0,0q.35-.3.72-.57a9.62,9.62,0,0,1,.8-.63l.83-.63a3.65,3.65,0,0,1,.31-.24l1.22-.92,1.22-.86c.18-.15.36-.27.55-.4.36-.26.72-.51,1.1-.76a11.51,11.51,0,0,1,1-.67l.1-.07c.33-.23.65-.44,1-.64.68-.46,1.36-.89,2-1.31l1.77-1.09c.49-.3,1-.59,1.48-.87s1-.58,1.5-.85,1-.56,1.53-.83,1-.56,1.54-.83,1-.54,1.57-.79L323,258l1.43-.67,1.61-.72c.78-.35,1.58-.7,2.39-1s1.61-.66,2.42-1c0,0,.05,0,.07,0l1.21-.46.6-.22.62-.23,2.44-.85,1.75-.57,1.78-.53c1.14-.35,2.3-.68,3.44-1l1.73-.44c.57-.15,1.15-.29,1.72-.41s1.19-.27,1.78-.4l1.77-.36c.63-.13,1.28-.25,1.93-.36s1.08-.2,1.63-.28l1.19-.18.23,0,1.45-.21,1.09-.14c1.08-.15,2.18-.27,3.27-.37.72-.08,1.45-.14,2.18-.19,1.11-.09,2.22-.16,3.32-.21h0c.91-.05,1.83-.09,2.75-.1s1.85,0,2.77,0H414.4a28.2,28.2,0,0,0,20-8.26c.34-.35.69-.73,1-1.1.17-.19.34-.37.5-.57a4.19,4.19,0,0,0,.28-.34.38.38,0,0,0,.1-.12c.19-.23.38-.46.56-.71a.1.1,0,0,0,0,0c.26-.34.51-.69.75-1a4,4,0,0,0,.23-.34c.25-.35.48-.71.7-1.09s.45-.76.66-1.16.37-.69.55-1,.35-.74.51-1.12l.17-.41a6.07,6.07,0,0,0,.24-.59c.14-.32.26-.66.37-1a4.59,4.59,0,0,0,.17-.48s0,0,0-.06c.06-.19.12-.37.17-.56,0,0,0,0,0,0s0,0,0,0l0-.16q.15-.47.27-.93c.05-.19.1-.37.13-.55s.14-.6.2-.9.11-.55.15-.83c0,0,0-.07,0-.1,0-.25.09-.5.13-.75s.09-.7.12-1.05q.07-.76.12-1.53c0-.44,0-.91,0-1.35a28.22,28.22,0,0,0-28.23-28.24H371.57A169.63,169.63,0,0,0,211.78,303.53l-.81,2.36a2.35,2.35,0,0,0-.11.35c-.16.45-.31.91-.45,1.37q-.85,2.58-1.6,5.22c-.11.35-.21.71-.31,1.07-.2.67-.39,1.34-.56,2s-.36,1.33-.53,2-.37,1.47-.54,2.21c-.12.45-.22.9-.33,1.35s-.27,1.21-.4,1.82-.23,1-.33,1.55a.19.19,0,0,0,0,.1,2.44,2.44,0,0,0-.07.39,0,0,0,0,0,0,0h0c0,.22-.09.41-.13.63-.1.48-.2,1-.3,1.48s-.15.72-.21,1.09-.12.63-.17.95-.14.75-.2,1.12c-.19,1.06-.36,2.13-.53,3.19-.07.47-.15.93-.21,1.4-.3,2-.55,3.91-.76,5.88-.06.5-.11,1-.16,1.51-.1.94-.19,1.89-.27,2.82s-.15,1.87-.21,2.8c0,.4-.05.8-.08,1.2-.06,1.06-.12,2.12-.16,3.17-.06,1.22-.1,2.46-.13,3.68s0,2.47,0,3.72a168.39,168.39,0,0,0,33.54,101.19q4.53,6.09,9.6,11.76c.77.86,1.54,1.72,2.34,2.55.62.67,1.25,1.33,1.89,2,.35.37.71.75,1.08,1.12,1,1,1.92,1.93,2.89,2.88l2.19,2.09c.79.75,1.58,1.48,2.39,2.2,1.29,1.16,2.58,2.29,3.9,3.41.65.56,1.32,1.11,2,1.66.46.39.92.76,1.39,1.13s1,.79,1.47,1.17c.91.73,1.83,1.44,2.77,2.13s1.7,1.28,2.57,1.92c1.17.85,2.36,1.68,3.55,2.5l1.21.82c.4.28.81.55,1.21.81l1.14.75c1.07.71,2.14,1.39,3.24,2.05.55.34,1.08.68,1.63,1s1.3.78,2,1.17c2.72,1.61,5.51,3.13,8.34,4.57,1.38.71,2.77,1.41,4.17,2.07s2.82,1.33,4.24,1.95l2.14.94c.6.26,1.2.51,1.81.75.85.35,1.69.7,2.55,1,1.38.55,2.78,1.08,4.19,1.59a168.87,168.87,0,0,0,53,10.14c1.66,0,3.34.07,5,.07H414.4a28.17,28.17,0,0,0,20-8.27c.62-.62,1.2-1.27,1.76-1.94a26.55,26.55,0,0,0,2.54-3.6A28.22,28.22,0,0,0,414.4,473Z"/><path class="cls-5" d="M414.4,529.92H371.57c-1.68,0-3.38,0-5.06-.07a169.22,169.22,0,0,1-53.16-10.17c-1.41-.51-2.81-1-4.19-1.6-.77-.3-1.54-.61-2.3-.93l-.26-.1c-.61-.25-1.21-.5-1.82-.77l-1.82-.79-.32-.14c-1.3-.57-2.69-1.21-4.26-2-1.27-.6-2.64-1.28-4.18-2.08-2.94-1.5-5.76-3-8.37-4.58-.66-.39-1.31-.77-2-1.17l-1.15-.7-.48-.3c-1-.62-2.09-1.29-3.25-2.06l-1.14-.75c-.41-.26-.82-.54-1.22-.81l-1.21-.83c-1.2-.82-2.39-1.66-3.56-2.5-.88-.64-1.74-1.28-2.59-1.93s-1.86-1.41-2.77-2.14c-.5-.38-1-.77-1.47-1.17s-.94-.75-1.4-1.14l-.46-.37c-.51-.43-1-.85-1.53-1.29-1.32-1.12-2.64-2.27-3.9-3.42-.81-.72-1.61-1.46-2.4-2.21l-2.2-2.09c-1-1-1.95-1.91-2.9-2.89-.37-.37-.73-.75-1.09-1.13-.65-.68-1.28-1.33-1.89-2-.79-.83-1.56-1.68-2.33-2.54-3.37-3.76-6.6-7.73-9.64-11.81A168.89,168.89,0,0,1,201.65,360c0-1.25,0-2.48,0-3.73s.07-2.47.13-3.69c0-1,.1-2.08.16-3.12l.08-1.26c.06-.9.13-1.8.2-2.71l0-.33c.08-.86.16-1.73.25-2.61l0-.15c0-.45.09-.91.15-1.36.22-2.08.47-4,.76-5.89,0-.43.12-.86.19-1.3l0-.11c.16-1.06.34-2.13.52-3.2.07-.38.13-.75.21-1.13s.11-.63.17-.94.14-.74.21-1.1l.3-1.48c0-.19.07-.38.12-.58v-.45h.09a.54.54,0,0,1,0-.15c.09-.51.21-1,.33-1.53s.26-1.21.39-1.81l.33-1.36c.17-.74.36-1.48.55-2.21s.34-1.34.53-2,.36-1.36.56-2c.1-.35.2-.72.31-1.08.5-1.76,1-3.52,1.61-5.22.13-.45.29-.92.45-1.38a1.84,1.84,0,0,1,.13-.38c.24-.75.52-1.54.79-2.33A170.11,170.11,0,0,1,371.57,190.08H414.4a28.57,28.57,0,0,1,20.32,8.41,29.21,29.21,0,0,1,4.38,5.64,28.64,28.64,0,0,1,4,14.69c0,.45,0,.92,0,1.38s-.06,1-.11,1.55c0,.36-.08.72-.13,1.07s-.06.43-.1.64v0l-.06.25a6,6,0,0,1-.14.79c-.06.3-.13.6-.2.91,0,.14-.07.3-.12.47-.09.4-.19.72-.29,1l-.08.3c0,.14-.09.28-.14.42l0,.11a4.91,4.91,0,0,1-.17.5c-.11.33-.24.68-.38,1s-.16.41-.24.6-.11.26-.18.41c-.15.38-.33.76-.51,1.13s-.36.68-.54,1-.46.84-.69,1.22-.46.76-.72,1.12a3,3,0,0,1-.25.36c-.21.32-.46.66-.71,1l-.1.13-.51.65a1.19,1.19,0,0,1-.16.19c-.06.08-.16.2-.27.32a6.62,6.62,0,0,1-.51.58c-.33.38-.69.76-1,1.11a28.57,28.57,0,0,1-20.32,8.41H371.57c-.92,0-1.84,0-2.75,0s-1.84,0-2.74.1c-1.15.05-2.25.12-3.35.21-.73,0-1.45.11-2.17.18-1.09.1-2.18.23-3.25.38l-1.08.13-1.46.21-.21,0c-.41,0-.8.11-1.19.19-.56.07-1.1.17-1.63.27s-1.29.24-1.93.36l-1.76.36-.22,0c-.51.1-1,.22-1.54.34l-1.71.41c-.6.14-1.16.29-1.73.44-1.21.31-2.36.64-3.42,1l-.92.28-.86.26q-.87.27-1.74.57c-.81.27-1.63.56-2.43.84l-1.22.45c-.41.15-.8.29-1.19.45l-.11,0c-.78.3-1.58.62-2.38,1s-1.6.67-2.38,1l-3,1.39c-.56.26-1.1.53-1.64.81s-1.13.56-1.64.83-1,.53-1.54.81l-.86.47-.68.37-1.48.84c-.51.3-1,.57-1.46.86s-1.18.72-1.77,1.1-1.38.85-2,1.29c-.33.21-.65.42-1,.64l-.13.09a10.83,10.83,0,0,0-1,.65c-.38.25-.74.5-1.1.76a5.63,5.63,0,0,0-.51.37l-1.68,1.21-.78.59a1.82,1.82,0,0,0-.29.22l-.86.65c-.27.2-.52.39-.77.61s-.5.38-.73.57l-.08.07-.1.07-.27.22-.58.48-.28.22-1.24,1c-.28.23-.54.45-.8.69l-.2.17-2,1.76c-.85.77-1.69,1.56-2.51,2.36l-.65.64-.43.43c-.35.33-.69.67-1,1s-.71.72-1,1.05c-.54.55-1.05,1.09-1.54,1.64-.19.19-.34.37-.49.55-.67.72-1.31,1.44-1.94,2.18a.88.88,0,0,0-.14.17c-.39.45-.73.85-1.06,1.26l-.9,1.1c-.23.27-.45.54-.66.82l-.06.08-.83,1-.22.29-.51.66-.14.18c-.38.51-.79,1.06-1.18,1.62-.25.33-.47.65-.7,1-.67.94-1.3,1.88-1.94,2.81l-.12.19c-.49.73-.95,1.45-1.41,2.18-.16.25-.32.49-.46.74-.6,1-1.16,1.91-1.72,2.87a112.53,112.53,0,0,0,0,112.44c.64,1.12,1.31,2.21,2,3.3l.32.53,1,1.5c.72,1.08,1.44,2.14,2.18,3.19l.07.11,1.26,1.74c.41.55.82,1.1,1.24,1.64s.83,1.09,1.26,1.62.86,1.08,1.29,1.61.88,1.05,1.33,1.57.89,1,1.35,1.55.9,1,1.36,1.51.94,1,1.42,1.51.91.95,1.36,1.41l.07.07c.65.66,1.3,1.3,2,1.95l.37.34.09.08.47.46,1.63,1.5c.53.48,1.1,1,1.67,1.47s1.16,1,1.72,1.47,1.17,1,1.76,1.44c.84.68,1.7,1.34,2.56,2H304l.12.18,1.28.93.87.64a3,3,0,0,1,.36.25l1.65,1.15c2,1.37,4.05,2.67,6.05,3.85.6.36,1.19.71,1.8,1s1.2.68,1.81,1,1.22.66,1.84,1,1.22.64,1.84.95c.78.38,1.56.76,2.35,1.12.31.15.61.3.9.42l.09,0a.34.34,0,0,1,.11.05l.08,0c.7.32,1.39.63,2.09.93a1.89,1.89,0,0,0,.31.13l.15.06.16.07c.69.3,1.42.59,2.15.88l.1,0h.15l.11.1.2.07.12.05.11,0,.47.19.12,0a8.75,8.75,0,0,0,.83.32c.34.14.66.25,1,.37.63.23,1.21.44,1.81.64l.46.15c.33.13.63.23.94.33l.28.09c.87.28,1.74.56,2.62.82.68.21,1.36.39,2,.58l.72.2c.28.09.54.16.81.22l.42.1.44.11a1.56,1.56,0,0,0,.28.08l.82.21.59.14.73.17,0,.52.11-.49.14,0,.15,0c.47.11,1,.23,1.52.33l.17,0,1.25.24c.37.09.73.15,1.09.21.72.16,1.42.28,2.12.39l.51.09c.78.13,1.55.26,2.32.36l.38,0c1.27.18,2.52.33,3.78.47l3,.27,1.36.1c.52.05,1,.07,1.53.08l.14,0,2.61.1H369c.87,0,1.73,0,2.59,0H414.4a28.74,28.74,0,0,1,24.7,43.42,28.22,28.22,0,0,1-2.58,3.66c-.6.72-1.19,1.36-1.8,2A28.57,28.57,0,0,1,414.4,529.92ZM206.11,325.84c0,.08,0,.15-.05.23l-.3,1.5c-.07.35-.15.71-.21,1.08s-.12.62-.17.94-.14.74-.2,1.11c-.19,1.07-.36,2.14-.52,3.19l0,.12c-.07.43-.14.85-.19,1.28-.29,1.88-.54,3.8-.76,5.86-.06.45-.1.9-.15,1.35v.16c-.09.87-.17,1.73-.25,2.59l0,.32c-.07.9-.15,1.8-.21,2.7l-.07,1.19c-.06,1.09-.12,2.13-.16,3.16-.06,1.23-.1,2.45-.13,3.67s0,2.47,0,3.71a168.06,168.06,0,0,0,33.44,100.9c3,4.05,6.24,8,9.57,11.71.78.87,1.54,1.72,2.33,2.54.61.67,1.24,1.31,1.86,2,.38.41.74.78,1.11,1.15.94,1,1.91,1.93,2.88,2.87l2.19,2.09c.78.74,1.57,1.47,2.38,2.19,1.26,1.14,2.56,2.28,3.88,3.4.5.44,1,.86,1.52,1.28l.46.38c.46.38.91.75,1.38,1.12s1,.79,1.47,1.17c.91.72,1.83,1.43,2.76,2.12s1.7,1.28,2.57,1.92q1.74,1.26,3.54,2.49l1.2.82,1.2.81,1.14.74c1.16.77,2.21,1.43,3.23,2l.48.29,1.15.7c.65.4,1.29.79,1.95,1.17,2.59,1.53,5.39,3.06,8.31,4.55,1.54.79,2.9,1.47,4.16,2.06,1.56.75,2.95,1.39,4.23,1.95l.32.14,1.82.8c.6.26,1.19.51,1.8.75l.26.11,2.28.92c1.38.55,2.77,1.08,4.18,1.59a168.38,168.38,0,0,0,52.84,10.11c1.67,0,3.36.07,5,.07H414.4A27.52,27.52,0,0,0,434,520.8c.59-.59,1.16-1.22,1.74-1.91a27.21,27.21,0,0,0,2.49-3.53,27.73,27.73,0,0,0-23.84-41.91H371.57c-.87,0-1.74,0-2.61,0a.66.66,0,0,1-.24,0h-.41c-.91,0-1.81-.07-2.68-.12a.37.37,0,0,1-.14,0c-.52,0-1,0-1.53-.09l-1.36-.09-3-.28c-1.27-.14-2.53-.29-3.79-.46l-.37-.05c-.81-.1-1.59-.23-2.37-.37l-.54-.09c-.69-.11-1.41-.23-2.11-.38-.37-.06-.75-.13-1.12-.22L348,471l-.14,0c-.48-.09-1-.22-1.55-.34l-.17,0-.25-.06-.69-.16-.58-.14c-.28-.06-.55-.13-.82-.21a1.9,1.9,0,0,1-.36-.09l-.38-.1-.42-.1c-.27-.06-.56-.14-.85-.23l-.71-.2c-.68-.19-1.36-.37-2.05-.59-.88-.26-1.76-.53-2.65-.82l-.27-.09c-.33-.11-.66-.22-1-.35l-.43-.13-1.77-.63c-.39-.14-.73-.26-1-.39a8.65,8.65,0,0,1-.87-.34l-.07,0c-.18-.07-.36-.13-.53-.21l-.35-.13a.73.73,0,0,1-.22-.09h0l-.09,0c-.83-.33-1.57-.63-2.3-.94l-.1,0-.16-.06a2.24,2.24,0,0,1-.36-.16l-2.08-.91-.14-.07-.15-.07c-.3-.13-.61-.28-.91-.43-.78-.35-1.57-.74-2.36-1.13-.63-.31-1.24-.62-1.86-.95s-1.24-.65-1.86-1-1.22-.66-1.83-1l-1.81-1.05c-2-1.19-4.07-2.5-6.11-3.89L306,452.59l-.33-.24-.9-.65c-.45-.32-.91-.66-1.36-1l-.09-.07c-.89-.67-1.78-1.36-2.65-2.06-.6-.47-1.19-1-1.78-1.45l-1.68-1.43-1.65-1.46h0l-1.72-1.61-.47-.44-.47-.44c-.67-.65-1.33-1.29-2-2l-.07-.07c-.46-.47-.92-.94-1.37-1.42s-1-1-1.43-1.52-.93-1-1.38-1.53-.91-1-1.36-1.56-.9-1.05-1.34-1.59-.88-1.07-1.3-1.61-.86-1.09-1.28-1.64l-1.25-1.66c-.41-.56-.81-1.13-1.21-1.69a.69.69,0,0,1-.14-.2c-.73-1-1.46-2.1-2.18-3.19-.36-.54-.71-1.09-1.06-1.64l-.25-.41c-.68-1.1-1.35-2.2-2-3.33a113.56,113.56,0,0,1,0-113.44c.57-1,1.14-1.93,1.73-2.88.14-.26.31-.51.48-.77.46-.73.92-1.46,1.41-2.18l.13-.21c.64-.94,1.28-1.88,1.93-2.79l.73-1c.39-.56.81-1.12,1.23-1.68l.15-.18c.12-.17.29-.4.47-.62l.22-.29c.27-.35.55-.71.84-1.06s.48-.63.73-.92l.89-1.1c.34-.41.69-.83,1.05-1.23a1.07,1.07,0,0,1,.19-.23c.61-.73,1.27-1.45,1.93-2.18.16-.18.33-.38.51-.56.49-.55,1-1.1,1.55-1.65.28-.32.61-.66,1-1s.72-.75,1.07-1.09l.43-.42c.21-.22.43-.43.66-.65.81-.8,1.67-1.61,2.54-2.38l2-1.81.12-.1c.34-.31.66-.58,1-.84l.88-.75a.82.82,0,0,1,.15-.12l.14-.1.21-.19.24-.19L300,272l.17-.14a4.31,4.31,0,0,1,.4-.32l.09-.07c.26-.22.48-.39.71-.56s.52-.42.8-.63l.83-.63a2.36,2.36,0,0,1,.33-.25c.23-.19.5-.39.77-.58l1.67-1.2a5.42,5.42,0,0,1,.54-.4c.36-.26.73-.51,1.11-.76a11.41,11.41,0,0,1,1-.69l.08-.06c.32-.22.65-.44,1-.64.64-.44,1.34-.89,2-1.31s1.16-.74,1.76-1.1l1.46-.86,1.54-.87.66-.36.88-.48c.5-.28,1-.56,1.55-.82s1.05-.55,1.58-.8,1.17-.59,1.73-.85l3.05-1.4c.79-.35,1.59-.7,2.41-1s1.6-.66,2.42-1l.09,0c.38-.16.78-.31,1.2-.46l1.22-.45,2.45-.85c.59-.2,1.17-.39,1.76-.57l.87-.26.93-.28c1.06-.33,2.22-.66,3.44-1l1.75-.44,1.72-.41c.52-.13,1-.24,1.56-.35l.23-.05,1.77-.36c.64-.13,1.29-.25,1.94-.36s1.09-.2,1.65-.28c.39-.07.79-.14,1.2-.19l.21,0,1.47-.22,1.1-.14c1.06-.14,2.17-.27,3.28-.37.72-.07,1.45-.14,2.19-.19,1.11-.08,2.22-.16,3.33-.21.95-.05,1.88-.09,2.81-.1s1.84,0,2.77,0H414.4A27.52,27.52,0,0,0,434,238.43c.34-.34.69-.71,1-1.07l.48-.56a3.8,3.8,0,0,0,.28-.33l.11-.13.54-.69c.3-.39.54-.73.77-1.07a2.79,2.79,0,0,0,.23-.32c.26-.37.48-.72.69-1.09s.44-.74.65-1.13.38-.7.54-1,.34-.71.5-1.08c.06-.14.12-.27.16-.39s.16-.39.23-.56c.15-.36.27-.69.38-1,.05-.15.1-.27.14-.39l0-.15a3.68,3.68,0,0,0,.15-.47v-.16l.07-.1c.1-.33.19-.63.26-.93l0-.1c0-.15.07-.28.1-.43.08-.32.14-.61.2-.9a7.09,7.09,0,0,0,.14-.78v0l0-.13q.08-.36.12-.72c.05-.34.09-.68.13-1,0-.5.08-1,.11-1.5s0-.89,0-1.33a27.72,27.72,0,0,0-27.73-27.74H371.57A169.15,169.15,0,0,0,212.25,303.69c-.27.78-.54,1.56-.8,2.36a1.75,1.75,0,0,0-.1.3c-.18.5-.32.95-.46,1.4-.56,1.7-1.1,3.45-1.6,5.21-.12.36-.21.72-.31,1.07-.2.68-.39,1.34-.56,2s-.36,1.33-.52,2-.37,1.46-.55,2.21L207,321.6c-.14.59-.27,1.19-.4,1.8s-.23,1-.33,1.55l0,.15a.87.87,0,0,0,0,.28l-.05.46Zm.14-.76Z"/><path class="cls-6" d="M300.46,325.43h11.21V333c-.41,4.88-2.7,7.37-7.16,7.37h-2.8a2.1,2.1,0,0,0-.83.1,14.75,14.75,0,0,0-10.48,11.31,19.15,19.15,0,0,0-.21,2.6,14.17,14.17,0,0,0,14.22,14.21h.1c4.46,0,6.75,2.5,7.16,7.37v7.58H304.3a29.19,29.19,0,0,1-4.46-58Z"/><path class="cls-6" d="M346.13,325.22A29.17,29.17,0,1,1,317,354.39,28.91,28.91,0,0,1,346.13,325.22Zm0,43.38a14.22,14.22,0,1,0-14.32-14.21A14.31,14.31,0,0,0,346.13,368.6Z"/><path class="cls-6" d="M489.76,350.34v33.21h-7.57c-4.88-.31-7.37-2.59-7.37-7.16v-24.7a2.48,2.48,0,0,0-.11-.94,14.29,14.29,0,0,0-28.12,3.53v29.27H431.75V354.28a14.16,14.16,0,0,0-14.22-14.11,14.55,14.55,0,0,0-13.91,10.58,2.71,2.71,0,0,0-.1.94v24.49a7.4,7.4,0,0,1-7.37,7.37h-7.57V353.66a13.42,13.42,0,0,0-4.16-9.34,12.5,12.5,0,0,0-1.76-1.56,6,6,0,0,1-.73-9H382a26.45,26.45,0,0,1,6.43-5,31.87,31.87,0,0,1,7.47,5.92c6.23-6.23,12.56-9.45,21.59-9.45a27.84,27.84,0,0,1,20.55,8.51,11.28,11.28,0,0,1,1.14,1.15,5.42,5.42,0,0,1,1-1.15,28.08,28.08,0,0,1,20.65-8.51c14.12,0,26.88,10.38,28.75,24.5Z"/><path class="cls-6" d="M559.71,342.87a13.93,13.93,0,0,0-5.81,11.52v22c0,4.57-2.49,6.85-7.37,7.16H539v-3.84a27.66,27.66,0,0,1-14.22,3.63,29.16,29.16,0,0,1,0-58.32,28.2,28.2,0,0,1,20.65,8.51,12.85,12.85,0,0,0,1.14,1.24,24.62,24.62,0,0,1,7.48-6,29,29,0,0,1,6.53,5A6.12,6.12,0,0,1,559.71,342.87ZM539,354.18a14.22,14.22,0,1,0-14.22,14.22A14.17,14.17,0,0,0,539,354.18Z"/><path class="cls-6" d="M632.67,342.76a14.17,14.17,0,0,0-5.81,11.42v22.11c0,6.95-4.25,15.35-8.4,19.82-5.71,6.22-13.39,8.72-21.69,8.72-12.67,0-23-6.13-27.4-18.37l-.94-2.81h11.31a6.94,6.94,0,0,1,4.16,1.56,14.29,14.29,0,0,0,12.24,6.23c7.68,0,14.32-4.15,15.78-12a28.09,28.09,0,0,1-14.64,3.84,29.17,29.17,0,0,1,0-58.33,28.22,28.22,0,0,1,20.66,8.51,16.32,16.32,0,0,0,1.35,1.46c1.76-2.39,5.19-4.78,7.68-6.23a32.83,32.83,0,0,1,6.53,5.08A6,6,0,0,1,632.67,342.76ZM611.5,354.08a14.22,14.22,0,1,0-14.22,14.32A14.17,14.17,0,0,0,611.5,354.08Z"/></svg>