<svg id="Camada_1" data-name="Camada 1" xmlns="http://www.w3.org/2000/svg" viewBox="0 0 720 720"><defs><style>.cls-1{opacity:0.61;}.cls-2{fill:#fff;stroke:#fff;stroke-miterlimit:10;}</style></defs><g class="cls-1"><path class="cls-2" d="M627.48,230.51c-.34-.66-.66-1.31-1-2A11.29,11.29,0,0,1,627.48,230.51Z"/></g><path class="cls-2" d="M627.48,230.51c-.34-.66-.66-1.31-1-2l-.05-.1a286.95,286.95,0,0,0-518.51,18.6,284.31,284.31,0,0,0-17.54,56.48,289.55,289.55,0,0,0,0,112.94,282.93,282.93,0,0,0,12.81,44.72c1.49,4,3.07,7.89,4.73,11.76a287.58,287.58,0,0,0,25.13,46.26q3.45,5.19,7.15,10.21a286.68,286.68,0,0,0,408,56.47h-2.28a255.59,255.59,0,0,1-139,40.84c-1.61,0-3.2,0-4.8-.05-1.18,0-2.36,0-3.55-.09h-.46c-.51,0-1,0-1.5-.06-.73,0-1.43,0-2.14-.09l-.55,0-.29,0c-.76,0-1.53-.07-2.29-.13h-.07l-.63,0-1.08-.07-.2,0-1-.07-1-.08-.29,0-.34,0c-.48,0-1-.06-1.44-.11l-.73-.06-.34,0c-.44-.05-.88-.08-1.32-.12l-.46,0c-.95-.08-1.88-.18-2.81-.28a1.46,1.46,0,0,1-.22,0c-.68-.06-1.35-.14-2-.22l-1.44-.18c-.73-.07-1.46-.17-2.18-.26l-2.17-.3-2.32-.32-3.59-.55-.29,0-2.12-.36-2.67-.47c-.88-.15-1.77-.31-2.64-.5-1.53-.29-3-.6-4.55-.92l-2.53-.55c-1.15-.25-2.28-.51-3.43-.78-.24-.07-.51-.13-.77-.19s-.5-.13-.76-.19c-1.22-.28-2.42-.6-3.64-.91l-.19,0c-1.48-.38-2.95-.78-4.42-1.19s-2.85-.81-4.27-1.23l-.25-.08c-1.42-.42-2.83-.86-4.23-1.31-1.21-.38-2.42-.77-3.61-1.18L323,612.7l-1.05-.37h0a4,4,0,0,1-.44-.17c-.88-.3-1.77-.62-2.65-.94l-1.13-.43c-.86-.29-1.71-.62-2.57-.95-1.65-.63-3.3-1.29-4.93-2s-3.11-1.28-4.66-1.95l-.09-.05c-.59-.24-1.17-.49-1.76-.75l-.57-.26-.3-.14c-1.17-.51-2.33-1-3.49-1.57-1.35-.62-2.7-1.25-4-1.9l0,0q-2-1-4-2l-3.91-2-.09,0c-1.14-.61-2.28-1.22-3.41-1.84l-.66-.36-3.45-1.93-1-.6c-.76-.44-1.51-.87-2.26-1.32-.94-.55-1.88-1.11-2.81-1.7s-1.68-1-2.51-1.54c-1.08-.66-2.13-1.33-3.19-2a257.91,257.91,0,0,1-62.3-56.47c-2.65-3.34-5.22-6.73-7.7-10.21-1.09-1.54-2.19-3.09-3.26-4.65-.79-1.18-1.59-2.36-2.38-3.55-.51-.76-1-1.53-1.5-2.31-.23-.35-.45-.69-.67-1.05l-.75-1.19c-.25-.38-.5-.78-.75-1.18l-.67-1.08c-.34-.54-.66-1.07-1-1.62s-.84-1.38-1.25-2.08l0-.08c-.23-.41-.47-.8-.72-1.22l-.71-1.22c0-.07-.09-.16-.14-.23l-.31-.54c-.07-.12-.13-.25-.21-.37-.62-1.1-1.24-2.2-1.85-3.33s-1.36-2.46-2-3.72l-.75-1.4c-.24-.48-.49-.95-.73-1.42-.41-.83-.83-1.65-1.24-2.47-.17-.32-.34-.66-.5-1l-.49-1c-.35-.71-.7-1.42-1-2.13s-.75-1.57-1.11-2.36-.62-1.33-.92-2c-.46-1-.92-2-1.37-3.06q-1.45-3.29-2.81-6.65s0,0,0-.05,0,0,0,0c-.89-1.65-1.73-3.34-2.57-5a229.22,229.22,0,0,1,87-297.13s0,0,0,0l.06,0a229.09,229.09,0,0,1,317.5,83.06h45.49a12.1,12.1,0,0,0,11.56-8.5,12,12,0,0,0-.3-8Z"/><g class="cls-1"><path class="cls-2" d="M441.47,226.81s0,0,0,0,0,.08,0,.12Z"/></g><path class="cls-2" d="M632.54,468.36a12.09,12.09,0,0,0-11-7.17H421.77l0,0A55,55,0,0,1,454.29,473c7.78,6.1,18.24,23.1,18.24,23.1a55.12,55.12,0,0,0,45,23.16h1.1q-2.83,5.22-6,10.21a185.57,185.57,0,0,1-42,46.7q-6.6,5.19-13.65,9.77a181.5,181.5,0,0,1-23.49,12.94,184,184,0,0,0,148.28-43.7,186.59,186.59,0,0,0,24.23-25.71c2-2.58,3.93-5.2,5.78-7.89a2,2,0,0,0,.13-.18c.5-.71,1-1.42,1.47-2.14a183.91,183.91,0,0,0,9.86-16.45A137.47,137.47,0,0,0,632.53,479a33.21,33.21,0,0,0,.79-4.08A12,12,0,0,0,632.54,468.36Z"/><path class="cls-2" d="M414.4,473H371.57c-.86,0-1.73,0-2.59,0h-.67l-2.66-.11a.2.2,0,0,1-.1,0c-.52,0-1,0-1.54-.08l-2.05-.15-1.26-.12-.45,0-.61-.08c-1.27-.13-2.53-.28-3.78-.46l-.39-.05c-.78-.1-1.56-.22-2.33-.36a4.71,4.71,0,0,1-.52-.09c-.71-.11-1.42-.23-2.12-.38-.37-.06-.75-.13-1.11-.21l-1.32-.27-.1,0c-.52-.1-1.05-.22-1.58-.35l-.12,0c-.09,0-.18,0-.25-.07l-1.32-.31c-.27-.06-.54-.12-.8-.2l-.32-.08-.83-.22a8,8,0,0,1-.84-.22c-.24-.06-.47-.12-.71-.2-.68-.19-1.37-.37-2.05-.58-.89-.27-1.76-.54-2.64-.83-.41-.13-.82-.26-1.22-.42l-.46-.15c-.6-.2-1.19-.41-1.76-.62-.35-.13-.7-.25-1-.39s-.57-.2-.85-.32-.41-.15-.61-.24l-.22-.08-.2-.08h0A.59.59,0,0,1,330,465h0l-.19-.08c-.73-.28-1.47-.58-2.19-.89l-.24-.1a3.47,3.47,0,0,1-.36-.15l-2.24-1a.45.45,0,0,1-.12-.06c-.3-.12-.61-.27-.91-.42-.8-.36-1.58-.75-2.37-1.14l-1.85-.94c-.63-.33-1.24-.65-1.85-1s-1.22-.66-1.81-1-1.21-.69-1.81-1.05q-3.1-1.83-6.09-3.87l-1.5-1-.51-.36-.88-.63-1.35-1,0,0c-.91-.69-1.82-1.39-2.7-2.1-.6-.47-1.18-.95-1.77-1.44s-1.16-1-1.73-1.48-1.14-1-1.7-1.51l0,0-1.05-1c-.18-.18-.36-.34-.53-.5l-.52-.5-.4-.37c-.68-.65-1.34-1.3-2-2l-.08-.07c-.45-.46-.91-.94-1.35-1.41s-1-1-1.44-1.52-.92-1-1.37-1.52-.9-1-1.35-1.55-.9-1.05-1.34-1.59l-1.29-1.6c-.44-.54-.86-1.08-1.27-1.63s-.83-1.1-1.24-1.66-.81-1.12-1.21-1.68a1.09,1.09,0,0,1-.13-.17c-.74-1-1.47-2.12-2.19-3.2l-1-1.63v0c-.76-1.23-1.52-2.45-2.24-3.71a113,113,0,0,1,0-112.94c.56-1,1.13-1.92,1.71-2.87.15-.26.31-.51.48-.76.46-.73.92-1.45,1.4-2.18l.07-.09c.66-1,1.32-1.95,2-2.89.23-.34.47-.68.72-1q.6-.84,1.23-1.68s.06-.09.1-.13l.74-1c.28-.37.58-.74.88-1.12s.44-.56.67-.84l.75-.91.12-.16,0,0c.33-.41.68-.82,1-1.22a1.18,1.18,0,0,1,.18-.21c.63-.75,1.28-1.47,1.94-2.19.16-.19.32-.37.5-.55.49-.56,1-1.11,1.54-1.64.3-.34.62-.67,1-1l.05-.05c.32-.35.67-.7,1-1s.71-.71,1.08-1.06c.82-.81,1.67-1.61,2.53-2.38l1.07-1,.32-.29.43-.37.18-.16.17-.14c.31-.29.62-.55.93-.8l0,0,.78-.67s0,0,0,0l.17-.14,0,0a.21.21,0,0,0,.08-.06,2.12,2.12,0,0,0,.24-.2l.24-.18.15-.13.19-.15c.12-.11.25-.21.37-.3s0,0,.06,0l0,0q.35-.3.72-.57a9.62,9.62,0,0,1,.8-.63l.83-.63a3.65,3.65,0,0,1,.31-.24l1.22-.92,1.22-.86c.18-.15.36-.27.55-.4.36-.26.72-.51,1.1-.76a11.51,11.51,0,0,1,1-.67l.1-.07c.33-.23.65-.44,1-.64.68-.46,1.36-.89,2-1.31l1.77-1.09c.49-.3,1-.59,1.48-.87s1-.58,1.5-.85,1-.56,1.53-.83,1-.56,1.54-.83,1-.54,1.57-.79L323,258l1.43-.67,1.61-.72c.78-.35,1.58-.7,2.39-1s1.61-.66,2.42-1c0,0,.05,0,.07,0l1.21-.46.6-.22.62-.23,2.44-.85,1.75-.57,1.78-.53c1.14-.35,2.3-.68,3.44-1l1.73-.44c.57-.15,1.15-.29,1.72-.41s1.19-.27,1.78-.4l1.77-.36c.63-.13,1.28-.25,1.93-.36s1.08-.2,1.63-.28l1.19-.18.23,0,1.45-.21,1.09-.14c1.08-.15,2.18-.27,3.27-.37.72-.08,1.45-.14,2.18-.19,1.11-.09,2.22-.16,3.32-.21h0c.91-.05,1.83-.09,2.75-.1s1.85,0,2.77,0H414.4a28.2,28.2,0,0,0,20-8.26c.34-.35.69-.73,1-1.1.17-.19.34-.37.5-.57a4.19,4.19,0,0,0,.28-.34.38.38,0,0,0,.1-.12c.19-.23.38-.46.56-.71a.1.1,0,0,0,0,0c.26-.34.51-.69.75-1a4,4,0,0,0,.23-.34c.25-.35.48-.71.7-1.09s.45-.76.66-1.16.37-.69.55-1,.35-.74.51-1.12l.17-.41a6.07,6.07,0,0,0,.24-.59c.14-.32.26-.66.37-1a4.59,4.59,0,0,0,.17-.48s0,0,0-.06c.06-.19.12-.37.17-.56,0,0,0,0,0,0s0,0,0,0l0-.16q.15-.47.27-.93c.05-.19.1-.37.13-.55s.14-.6.2-.9.11-.55.15-.83c0,0,0-.07,0-.1,0-.25.09-.5.13-.75s.09-.7.12-1.05q.07-.76.12-1.53c0-.44,0-.91,0-1.35a28.22,28.22,0,0,0-28.23-28.24H371.57A169.63,169.63,0,0,0,211.78,303.53l-.81,2.36a2.35,2.35,0,0,0-.11.35c-.16.45-.31.91-.45,1.37q-.85,2.58-1.6,5.22c-.11.35-.21.71-.31,1.07-.2.67-.39,1.34-.56,2s-.36,1.33-.53,2-.37,1.47-.54,2.21c-.12.45-.22.9-.33,1.35s-.27,1.21-.4,1.82-.23,1-.33,1.55a.19.19,0,0,0,0,.1,2.44,2.44,0,0,0-.07.39,0,0,0,0,0,0,0h0c0,.22-.09.41-.13.63-.1.48-.2,1-.3,1.48s-.15.72-.21,1.09-.12.63-.17.95-.14.75-.2,1.12c-.19,1.06-.36,2.13-.53,3.19-.07.47-.15.93-.21,1.4-.3,2-.55,3.91-.76,5.88-.06.5-.11,1-.16,1.51-.1.94-.19,1.89-.27,2.82s-.15,1.87-.21,2.8c0,.4-.05.8-.08,1.2-.06,1.06-.12,2.12-.16,3.17-.06,1.22-.1,2.46-.13,3.68s0,2.47,0,3.72a168.39,168.39,0,0,0,33.54,101.19q4.53,6.09,9.6,11.76c.77.86,1.54,1.72,2.34,2.55.62.67,1.25,1.33,1.89,2,.35.37.71.75,1.08,1.12,1,1,1.92,1.93,2.89,2.88l2.19,2.09c.79.75,1.58,1.48,2.39,2.2,1.29,1.16,2.58,2.29,3.9,3.41.65.56,1.32,1.11,2,1.66.46.39.92.76,1.39,1.13s1,.79,1.47,1.17c.91.73,1.83,1.44,2.77,2.13s1.7,1.28,2.57,1.92c1.17.85,2.36,1.68,3.55,2.5l1.21.82c.4.28.81.55,1.21.81l1.14.75c1.07.71,2.14,1.39,3.24,2.05.55.34,1.08.68,1.63,1s1.3.78,2,1.17c2.72,1.61,5.51,3.13,8.34,4.57,1.38.71,2.77,1.41,4.17,2.07s2.82,1.33,4.24,1.95l2.14.94c.6.26,1.2.51,1.81.75.85.35,1.69.7,2.55,1,1.38.55,2.78,1.08,4.19,1.59a168.87,168.87,0,0,0,53,10.14c1.66,0,3.34.07,5,.07H414.4a28.17,28.17,0,0,0,20-8.27c.62-.62,1.2-1.27,1.76-1.94a26.55,26.55,0,0,0,2.54-3.6A28.22,28.22,0,0,0,414.4,473Z"/><path class="cls-2" d="M300.46,325.43h11.21V333c-.41,4.88-2.7,7.37-7.16,7.37h-2.8a2.1,2.1,0,0,0-.83.1,14.75,14.75,0,0,0-10.48,11.31,19.15,19.15,0,0,0-.21,2.6,14.17,14.17,0,0,0,14.22,14.21h.1c4.46,0,6.75,2.5,7.16,7.37v7.58H304.3a29.19,29.19,0,0,1-4.46-58Z"/><path class="cls-2" d="M346.13,325.22A29.17,29.17,0,1,1,317,354.39,28.91,28.91,0,0,1,346.13,325.22Zm0,43.38a14.22,14.22,0,1,0-14.32-14.21A14.31,14.31,0,0,0,346.13,368.6Z"/><path class="cls-2" d="M489.76,350.34v33.21h-7.57c-4.88-.31-7.37-2.59-7.37-7.16v-24.7a2.48,2.48,0,0,0-.11-.94,14.29,14.29,0,0,0-28.12,3.53v29.27H431.75V354.28a14.16,14.16,0,0,0-14.22-14.11,14.55,14.55,0,0,0-13.91,10.58,2.71,2.71,0,0,0-.1.94v24.49a7.4,7.4,0,0,1-7.37,7.37h-7.57V353.66a13.42,13.42,0,0,0-4.16-9.34,12.5,12.5,0,0,0-1.76-1.56,6,6,0,0,1-.73-9H382a26.45,26.45,0,0,1,6.43-5,31.87,31.87,0,0,1,7.47,5.92c6.23-6.23,12.56-9.45,21.59-9.45a27.84,27.84,0,0,1,20.55,8.51,11.28,11.28,0,0,1,1.14,1.15,5.42,5.42,0,0,1,1-1.15,28.08,28.08,0,0,1,20.65-8.51c14.12,0,26.88,10.38,28.75,24.5Z"/><path class="cls-2" d="M559.71,342.87a13.93,13.93,0,0,0-5.81,11.52v22c0,4.57-2.49,6.85-7.37,7.16H539v-3.84a27.66,27.66,0,0,1-14.22,3.63,29.16,29.16,0,0,1,0-58.32,28.2,28.2,0,0,1,20.65,8.51,12.85,12.85,0,0,0,1.14,1.24,24.62,24.62,0,0,1,7.48-6,29,29,0,0,1,6.53,5A6.12,6.12,0,0,1,559.71,342.87ZM539,354.18a14.22,14.22,0,1,0-14.22,14.22A14.17,14.17,0,0,0,539,354.18Z"/><path class="cls-2" d="M632.67,342.76a14.17,14.17,0,0,0-5.81,11.42v22.11c0,6.95-4.25,15.35-8.4,19.82-5.71,6.22-13.39,8.72-21.69,8.72-12.67,0-23-6.13-27.4-18.37l-.94-2.81h11.31a6.94,6.94,0,0,1,4.16,1.56,14.29,14.29,0,0,0,12.24,6.23c7.68,0,14.32-4.15,15.78-12a28.09,28.09,0,0,1-14.64,3.84,29.17,29.17,0,0,1,0-58.33,28.22,28.22,0,0,1,20.66,8.51,16.32,16.32,0,0,0,1.35,1.46c1.76-2.39,5.19-4.78,7.68-6.23a32.83,32.83,0,0,1,6.53,5.08A6,6,0,0,1,632.67,342.76ZM611.5,354.08a14.22,14.22,0,1,0-14.22,14.32A14.17,14.17,0,0,0,611.5,354.08Z"/></svg>